<svg width="273" height="129" viewBox="0 0 273 129" fill="none" xmlns="http://www.w3.org/2000/svg">
<path d="M133.677 127.053C129.852 121.574 123.466 115.714 117.282 112.007C111.037 108.263 105.106 106.184 98.3717 105.38C97.044 105.223 95.9431 105.076 95.9255 105.055C95.9084 105.055 95.9427 88.1458 96.0114 67.526L96.1247 30.0366L97.3507 30.1832C104.879 31.0941 113.282 34.5637 119.639 39.3996C125.118 43.5664 130.776 50.001 134.383 56.1665L135.291 57.7181V93.3292C135.291 112.915 135.222 128.936 135.14 128.933C135.054 128.93 134.397 128.083 133.677 127.053ZM139.914 93.2392V57.4794L141.667 54.6223C143.905 50.9747 148.407 45.4792 151.384 42.7624C159.342 35.4976 167.975 31.3924 177.885 30.157L179.142 30V67.5417V105.084L177.684 105.252C163.884 106.818 151.921 113.763 142.563 125.637L139.914 129V93.2392ZM148.464 126.569C153.88 120.371 161.05 115.446 168.252 112.974C172.021 111.681 176.923 110.779 180.176 110.779C181.882 110.779 182.828 110.329 183.362 109.26C183.764 108.454 183.768 108.107 183.769 77.6867L183.769 46.9251L184.524 47.0926C184.939 47.1973 186.116 47.5951 187.139 47.993L189 48.7154V87.1061C189 108.221 188.931 125.497 188.846 125.497C188.761 125.497 187.517 125.172 186.08 124.774C180.403 123.215 175.727 122.678 169.587 122.881C162.139 123.132 156.351 124.399 149.47 127.299L146.855 128.401L148.464 126.569ZM125.53 127.166C122.672 125.918 117.953 124.447 114.767 123.812C110.435 122.954 107.447 122.726 102.138 122.87C96.8625 123.006 93.6717 123.456 89.3189 124.661C88.1018 124.996 86.857 125.342 86.5528 125.415L86 125.562L86.0009 87.0684L86.002 48.574L88.3649 47.7365C89.6644 47.2758 90.8409 46.8465 90.9792 46.7942C91.1792 46.6895 91.2307 52.9608 91.2307 77.5213C91.2307 111.083 91.1706 109.213 92.3446 110.154C92.7532 110.478 93.6021 110.625 96.0263 110.803C105.661 111.473 114.803 115.419 122.266 122.133C123.875 123.581 127.738 127.557 127.959 127.994C128.113 128.297 128.01 128.266 125.531 127.177L125.53 127.166Z" fill="white"/>
<path d="M11.2727 124V30.9091H43.8182C50.303 30.9091 55.6515 32.0303 59.8636 34.2727C64.0758 36.4848 67.2121 39.4697 69.2727 43.2273C71.3333 46.9545 72.3636 51.0909 72.3636 55.6364C72.3636 59.6364 71.6515 62.9394 70.2273 65.5455C68.8333 68.1515 66.9849 70.2121 64.6818 71.7273C62.4091 73.2424 59.9394 74.3636 57.2727 75.0909V76C60.1212 76.1818 62.9849 77.1818 65.8636 79C68.7424 80.8182 71.1515 83.4242 73.0909 86.8182C75.0303 90.2121 76 94.3636 76 99.2727C76 103.939 74.9394 108.136 72.8182 111.864C70.697 115.591 67.3485 118.545 62.7727 120.727C58.197 122.909 52.2424 124 44.9091 124H11.2727ZM22.5455 114H44.9091C52.2727 114 57.5 112.576 60.5909 109.727C63.7121 106.848 65.2727 103.364 65.2727 99.2727C65.2727 96.1212 64.4697 93.2121 62.8636 90.5455C61.2576 87.8485 58.9697 85.697 56 84.0909C53.0303 82.4545 49.5152 81.6364 45.4545 81.6364H22.5455V114ZM22.5455 71.8182H43.4545C46.8485 71.8182 49.9091 71.1515 52.6364 69.8182C55.3939 68.4848 57.5758 66.6061 59.1818 64.1818C60.8182 61.7576 61.6364 58.9091 61.6364 55.6364C61.6364 51.5455 60.2121 48.0758 57.3636 45.2273C54.5152 42.3485 50 40.9091 43.8182 40.9091H22.5455V71.8182Z" fill="white"/>
<path d="M203.273 124V30.9091H214.545V77.0909H215.636L257.455 30.9091H272.182L233.091 72.9091L272.182 124H258.545L226.182 80.7273L214.545 93.8182V124H203.273Z" fill="white"/>
</svg>
